# xmcd CD database file
#
# Track frame offsets:
#	150
#	21106
#	39605
#	52953
#	77890
#	94142
#	107413
#	124766
#
# Disc length: 1922 seconds
#
# Revision: 0
# Processed by: cddbd v1.5.2PL0 Copyright (c) Steve Scherf et al.
# Submitted via: CDex 1.70beta2
#
DISCID=5c078008
DTITLE=ぴずや - SYMMETRY BURZUM
DYEAR=2008
DGENRE=東方アレンジ
TTITLE0=White cluster (永夜抄～Eastern Night)
TTITLE1=Desire (夢消失 ～Lost Dream)
TTITLE2=To Night Illusion By Fire (幻視の夜～Ghostly Eyes)
TTITLE3=Thousand in the Subliminal (千年幻想郷～History of the)
TTITLE4=Trick this Trick (風神少女)
TTITLE5=Rage Spark (恋色マスタースパーク)
TTITLE6=Pholus5150（from Kuiper belt） (フォルスストロベリー)
TTITLE7=Bleed to Dream (Eternal Dream～幽玄の槭樹)
EXTD=YEAR: 2008
EXTT0=
EXTT1=
EXTT2=
EXTT3=
EXTT4=
EXTT5=
EXTT6=
EXTT7=
PLAYORDER=
